<svg id="Group_10910" data-name="Group 10910" xmlns="http://www.w3.org/2000/svg" xmlns:xlink="http://www.w3.org/1999/xlink" width="40" height="34.621" viewBox="0 0 40 34.621">
  <defs>
    <clipPath id="clip-path">
      <rect id="Rectangle_689" data-name="Rectangle 689" width="20" height="14.384" fill="#fff"/>
    </clipPath>
  </defs>
  <g id="Group_10513" data-name="Group 10513" transform="translate(0 0)">
    <g id="Group_10509" data-name="Group 10509">
      <g id="Polygon_1" data-name="Polygon 1" fill="none">
        <path d="M30,0,40,17.31,30,34.621H10L0,17.31,10,0Z" stroke="none"/>
        <path d="M 11.15436553955078 1.999996185302734 L 2.309741973876953 17.31034660339355 L 11.15436553955078 32.62069702148438 L 28.84563446044922 32.62069702148438 L 37.69025802612305 17.31034660339355 L 28.84563446044922 1.999996185302734 L 11.15436553955078 1.999996185302734 M 10 -3.814697265625e-06 L 30 -3.814697265625e-06 L 40 17.31034660339355 L 30 34.62069702148438 L 10 34.62069702148438 L 0 17.31034660339355 L 10 -3.814697265625e-06 Z" stroke="none" fill="#fff"/>
      </g>
    </g>
  </g>
  <g id="Group_10912" data-name="Group 10912" transform="translate(10 10.119)">
    <g id="Group_10911" data-name="Group 10911" clip-path="url(#clip-path)">
      <path id="Path_22760" data-name="Path 22760" d="M17.534,1.8A8.467,8.467,0,0,0,12.723,0l-.24.274a11.4,11.4,0,0,1,4.264,2.175A13.961,13.961,0,0,0,11.593.8,14.492,14.492,0,0,0,8.134.839a1.679,1.679,0,0,0-.291.034A12.854,12.854,0,0,0,3.955,1.952c-.633.291-1.01.5-1.01.5A11.552,11.552,0,0,1,7.449.205L7.277,0A8.468,8.468,0,0,0,2.466,1.8,22.931,22.931,0,0,0,0,11.781a6.208,6.208,0,0,0,5.223,2.6s.634-.771,1.147-1.421a5.325,5.325,0,0,1-3-2.02s.171.12.479.291a.233.233,0,0,0,.068.051c.051.034.1.051.154.086a10.028,10.028,0,0,0,1.25.582,14.37,14.37,0,0,0,2.517.736,12,12,0,0,0,4.435.017,11.269,11.269,0,0,0,2.483-.736,9.8,9.8,0,0,0,1.969-1.01A5.4,5.4,0,0,1,13.63,13c.514.651,1.13,1.387,1.13,1.387a6.259,6.259,0,0,0,5.24-2.6A22.931,22.931,0,0,0,17.534,1.8M6.8,10.188a1.836,1.836,0,0,1-1.747-1.9A1.824,1.824,0,0,1,6.8,6.387a1.813,1.813,0,0,1,1.747,1.9,1.824,1.824,0,0,1-1.747,1.9m6.25,0a1.836,1.836,0,0,1-1.747-1.9,1.824,1.824,0,0,1,1.747-1.9,1.824,1.824,0,0,1,1.747,1.9,1.824,1.824,0,0,1-1.747,1.9" transform="translate(0 0)" fill="#fff"/>
    </g>
  </g>
</svg>
