<svg id="Group_11293" data-name="Group 11293" xmlns="http://www.w3.org/2000/svg" xmlns:xlink="http://www.w3.org/1999/xlink" width="33.371" height="24" viewBox="0 0 33.371 24">
  <defs>
    <clipPath id="clip-path">
      <rect id="Rectangle_689" data-name="Rectangle 689" width="33.371" height="24"/>
    </clipPath>
  </defs>
  <g id="Group_10911" data-name="Group 10911" clip-path="url(#clip-path)">
    <path id="Path_22760" data-name="Path 22760" d="M29.257,3a14.128,14.128,0,0,0-8.028-3l-.4.457a19.013,19.013,0,0,1,7.114,3.628,23.3,23.3,0,0,0-8.6-2.743,24.181,24.181,0,0,0-5.771.057,2.8,2.8,0,0,0-.486.057A21.448,21.448,0,0,0,6.6,3.257c-1.057.486-1.686.829-1.686.829A19.275,19.275,0,0,1,12.429.343L12.143,0A14.129,14.129,0,0,0,4.114,3,38.262,38.262,0,0,0,0,19.657S2.4,23.8,8.714,24c0,0,1.057-1.286,1.914-2.371a8.886,8.886,0,0,1-5-3.371s.286.2.8.486a.389.389,0,0,0,.114.086c.086.057.171.086.257.143a16.732,16.732,0,0,0,2.086.971,23.977,23.977,0,0,0,4.2,1.229,20.015,20.015,0,0,0,7.4.029,18.8,18.8,0,0,0,4.143-1.229,16.346,16.346,0,0,0,3.286-1.686,9.016,9.016,0,0,1-5.171,3.4C23.6,22.771,24.629,24,24.629,24c6.314-.2,8.743-4.343,8.743-4.343A38.262,38.262,0,0,0,29.257,3M11.343,17a3.063,3.063,0,0,1-2.914-3.171,3.044,3.044,0,0,1,2.914-3.171,3.026,3.026,0,0,1,2.914,3.171A3.044,3.044,0,0,1,11.343,17m10.428,0a3.063,3.063,0,0,1-2.914-3.171,3.044,3.044,0,0,1,2.914-3.171,3.044,3.044,0,0,1,2.914,3.171A3.044,3.044,0,0,1,21.771,17" transform="translate(0 0)"/>
  </g>
</svg>
