<svg id="Group_10510" data-name="Group 10510" xmlns="http://www.w3.org/2000/svg" width="40" height="34.576" viewBox="0 0 40 34.576">
  <g id="Group_10509" data-name="Group 10509">
    <g id="Polygon_1" data-name="Polygon 1" fill="none">
      <path d="M30,0,40,17.288,30,34.576H10L0,17.288,10,0Z" stroke="none"/>
      <path d="M 11.15361785888672 1.999996185302734 L 2.310482025146484 17.28813743591309 L 11.15361785888672 32.57627868652344 L 28.84638214111328 32.57627868652344 L 37.68951797485352 17.28813743591309 L 28.84638214111328 1.999996185302734 L 11.15361785888672 1.999996185302734 M 10 -3.814697265625e-06 L 30 -3.814697265625e-06 L 40 17.28813743591309 L 30 34.57627868652344 L 10 34.57627868652344 L 0 17.28813743591309 L 10 -3.814697265625e-06 Z" stroke="none" fill="#fff"/>
    </g>
  </g>
  <path id="Icon_awesome-facebook-f" data-name="Icon awesome-facebook-f" d="M10.483,9.973l.492-3.209H7.9V4.682A1.6,1.6,0,0,1,9.706,2.949h1.4V.217A17.069,17.069,0,0,0,8.621,0C6.085,0,4.428,1.537,4.428,4.319V6.764H1.609V9.973H4.428V17.73H7.9V9.973Z" transform="translate(13.542 8.48)" fill="#fff"/>
</svg>
