<svg xmlns="http://www.w3.org/2000/svg" xmlns:xlink="http://www.w3.org/1999/xlink" width="360" height="129" viewBox="0 0 360 129">
  <defs>
    <filter id="Path_22692" x="0" y="0" width="360" height="129" filterUnits="userSpaceOnUse">
      <feOffset dy="12" input="SourceAlpha"/>
      <feGaussianBlur stdDeviation="11.5" result="blur"/>
      <feFlood flood-color="#eea500" flood-opacity="0.502"/>
      <feComposite operator="in" in2="blur"/>
    </filter>
    <filter id="Path_22692-2" x="0" y="0" width="360" height="129" filterUnits="userSpaceOnUse">
      <feOffset input="SourceAlpha"/>
      <feGaussianBlur stdDeviation="6" result="blur-2"/>
      <feFlood flood-color="#eea500" flood-opacity="0.4" result="color"/>
      <feComposite operator="out" in="SourceGraphic" in2="blur-2"/>
      <feComposite operator="in" in="color"/>
      <feComposite operator="in" in2="SourceGraphic"/>
    </filter>
  </defs>
  <g data-type="innerShadowGroup">
    <g transform="matrix(1, 0, 0, 1, 0, 0)" filter="url(#Path_22692)">
      <g id="Path_22692-3" data-name="Path 22692" transform="translate(34.5 22.5)" fill="rgba(238,165,0,0.4)">
        <path d="M 275.8393249511719 59.5 L 0.5 59.5 L 0.5 16.32163619995117 L 15.21776866912842 0.5 L 290.5 0.5 L 290.5 44.79335021972656 L 275.8393249511719 59.5 Z" stroke="none"/>
        <path d="M 15.435546875 1 L 1 16.51826095581055 L 1 59 L 275.6317443847656 59 L 290 44.58668518066406 L 290 1 L 15.435546875 1 M 15 0 L 291 0 L 291 45 L 276.046875 60 L 0 60 L 0 16.12503814697266 L 15 0 Z" stroke="none" fill="#eea500"/>
      </g>
    </g>
    <g id="Path_22692-4" data-name="Path 22692" transform="translate(34.5 22.5)" fill="rgba(238,165,0,0.4)">
      <path d="M 275.8393249511719 59.5 L 0.5 59.5 L 0.5 16.32163619995117 L 15.21776866912842 0.5 L 290.5 0.5 L 290.5 44.79335021972656 L 275.8393249511719 59.5 Z" stroke="none"/>
      <path d="M 15.435546875 1 L 1 16.51826095581055 L 1 59 L 275.6317443847656 59 L 290 44.58668518066406 L 290 1 L 15.435546875 1 M 15 0 L 291 0 L 291 45 L 276.046875 60 L 0 60 L 0 16.12503814697266 L 15 0 Z" stroke="none"/>
    </g>
    <g transform="matrix(1, 0, 0, 1, 0, 0)" filter="url(#Path_22692-2)">
      <g id="Path_22692-5" data-name="Path 22692" transform="translate(34.5 22.5)" fill="#fff">
        <path d="M 275.8393249511719 59.5 L 0.5 59.5 L 0.5 16.32163619995117 L 15.21776866912842 0.5 L 290.5 0.5 L 290.5 44.79335021972656 L 275.8393249511719 59.5 Z" stroke="none"/>
        <path d="M 15.435546875 1 L 1 16.51826095581055 L 1 59 L 275.6317443847656 59 L 290 44.58668518066406 L 290 1 L 15.435546875 1 M 15 0 L 291 0 L 291 45 L 276.046875 60 L 0 60 L 0 16.12503814697266 L 15 0 Z" stroke="none"/>
      </g>
    </g>
    <g id="Path_22692-6" data-name="Path 22692" transform="translate(34.5 22.5)" fill="none">
      <path d="M 275.8393249511719 59.5 L 0.5 59.5 L 0.5 16.32163619995117 L 15.21776866912842 0.5 L 290.5 0.5 L 290.5 44.79335021972656 L 275.8393249511719 59.5 Z" stroke="none"/>
      <path d="M 15.435546875 1 L 1 16.51826095581055 L 1 59 L 275.6317443847656 59 L 290 44.58668518066406 L 290 1 L 15.435546875 1 M 15 0 L 291 0 L 291 45 L 276.046875 60 L 0 60 L 0 16.12503814697266 L 15 0 Z" stroke="none" fill="#eea500"/>
    </g>
  </g>
</svg>
