<svg id="Group_10516" data-name="Group 10516" xmlns="http://www.w3.org/2000/svg" xmlns:xlink="http://www.w3.org/1999/xlink" width="40" height="34.621" viewBox="0 0 40 34.621">
  <defs>
    <clipPath id="clip-path">
      <rect id="Rectangle_491" data-name="Rectangle 491" width="15.774" height="15.774" fill="#fff"/>
    </clipPath>
  </defs>
  <g id="Group_10509" data-name="Group 10509" transform="translate(0 0)">
    <g id="Polygon_1" data-name="Polygon 1" fill="none">
      <path d="M30,0,40,17.31,30,34.621H10L0,17.31,10,0Z" stroke="none"/>
      <path d="M 11.15436553955078 1.999996185302734 L 2.309741973876953 17.31034660339355 L 11.15436553955078 32.62069702148438 L 28.84563446044922 32.62069702148438 L 37.69025802612305 17.31034660339355 L 28.84563446044922 1.999996185302734 L 11.15436553955078 1.999996185302734 M 10 -3.814697265625e-06 L 30 -3.814697265625e-06 L 40 17.31034660339355 L 30 34.62069702148438 L 10 34.62069702148438 L 0 17.31034660339355 L 10 -3.814697265625e-06 Z" stroke="none" fill="#fff"/>
    </g>
  </g>
  <g id="Group_10508" data-name="Group 10508" transform="translate(11.955 9.26)">
    <g id="Group_10489" data-name="Group 10489" clip-path="url(#clip-path)">
      <path id="Path_22638" data-name="Path 22638" d="M25.909,6.318a.925.925,0,1,0,.925.925.925.925,0,0,0-.925-.925" transform="translate(-13.846 -3.501)" fill="#fff"/>
      <path id="Path_22639" data-name="Path 22639" d="M13.007,8.977a3.885,3.885,0,1,0,3.884,3.885,3.889,3.889,0,0,0-3.884-3.885m0,6.373a2.488,2.488,0,1,1,2.488-2.488,2.491,2.491,0,0,1-2.488,2.488" transform="translate(-5.055 -4.975)" fill="#fff"/>
      <path id="Path_22640" data-name="Path 22640" d="M11.034,15.774h-6.3A4.744,4.744,0,0,1,0,11.035v-6.3A4.743,4.743,0,0,1,4.737,0h6.3a4.743,4.743,0,0,1,4.738,4.738v6.3a4.744,4.744,0,0,1-4.738,4.738M4.737,1.484A3.257,3.257,0,0,0,1.483,4.738v6.3a3.257,3.257,0,0,0,3.254,3.254h6.3a3.257,3.257,0,0,0,3.254-3.254v-6.3a3.257,3.257,0,0,0-3.254-3.254Z" transform="translate(0.001 0)" fill="#fff"/>
    </g>
  </g>
</svg>
