<svg id="Group_11295" data-name="Group 11295" xmlns="http://www.w3.org/2000/svg" xmlns:xlink="http://www.w3.org/1999/xlink" width="32.532" height="26.776" viewBox="0 0 32.532 26.776">
  <defs>
    <clipPath id="clip-path">
      <rect id="Rectangle_490" data-name="Rectangle 490" width="32.532" height="26.776"/>
    </clipPath>
  </defs>
  <g id="Group_10487" data-name="Group 10487" transform="translate(0 0)" clip-path="url(#clip-path)">
    <path id="Path_22637" data-name="Path 22637" d="M32.4,3.209a13.433,13.433,0,0,1-3.29.938c.529-.089,1.306-1.047,1.618-1.434A6.041,6.041,0,0,0,31.818.722c.029-.057.049-.128-.008-.171a.187.187,0,0,0-.174.014,16.771,16.771,0,0,1-3.9,1.492.26.26,0,0,1-.269-.071,3.168,3.168,0,0,0-.341-.348A6.887,6.887,0,0,0,25.236.481a6.575,6.575,0,0,0-2.9-.467A6.924,6.924,0,0,0,19.588.79,7.085,7.085,0,0,0,17.37,2.6a6.811,6.811,0,0,0-1.324,2.653,7.18,7.18,0,0,0-.07,2.8c.021.157.007.177-.135.157-5.357-.8-9.8-2.715-13.4-6.822-.157-.179-.241-.179-.369.014C.49,3.768,1.255,7.567,3.226,9.434c.263.249.534.5.824.725a6.833,6.833,0,0,1-2.587-.725c-.156-.1-.235-.042-.249.135a4.052,4.052,0,0,0,.043.767,6.871,6.871,0,0,0,4.236,5.479,4.042,4.042,0,0,0,.859.263,7.656,7.656,0,0,1-2.536.078c-.185-.036-.256.058-.185.235a7.137,7.137,0,0,0,5.33,4.463c.241.042.483.042.726.1-.015.022-.03.022-.043.042-.6.913-2.673,1.592-3.64,1.929a13.028,13.028,0,0,1-5.528.708c-.3-.044-.36-.04-.44,0s-.011.122.085.2c.378.249.761.47,1.152.683a18.173,18.173,0,0,0,3.7,1.479c6.641,1.834,14.121.486,19.107-4.468,3.916-3.891,5.288-9.256,5.288-14.628,0-.21.248-.326.4-.437a12.95,12.95,0,0,0,2.6-2.7.821.821,0,0,0,.172-.518V3.209c0-.086,0-.061-.133,0" transform="translate(0 0)"/>
  </g>
</svg>
