<svg id="Group_10594" data-name="Group 10594" xmlns="http://www.w3.org/2000/svg" xmlns:xlink="http://www.w3.org/1999/xlink" width="40" height="34.621" viewBox="0 0 40 34.621">
  <defs>
    <clipPath id="clip-path">
      <rect id="Rectangle_490" data-name="Rectangle 490" width="15.389" height="12.666" fill="#fff"/>
    </clipPath>
  </defs>
  <g id="Group_10513" data-name="Group 10513" transform="translate(0 0)">
    <g id="Group_10509" data-name="Group 10509">
      <g id="Polygon_1" data-name="Polygon 1" fill="none">
        <path d="M30,0,40,17.31,30,34.621H10L0,17.31,10,0Z" stroke="none"/>
        <path d="M 11.15436553955078 1.999996185302734 L 2.309741973876953 17.31034660339355 L 11.15436553955078 32.62069702148438 L 28.84563446044922 32.62069702148438 L 37.69025802612305 17.31034660339355 L 28.84563446044922 1.999996185302734 L 11.15436553955078 1.999996185302734 M 10 -3.814697265625e-06 L 30 -3.814697265625e-06 L 40 17.31034660339355 L 30 34.62069702148438 L 10 34.62069702148438 L 0 17.31034660339355 L 10 -3.814697265625e-06 Z" stroke="none" fill="#fff"/>
      </g>
    </g>
  </g>
  <g id="Group_10507" data-name="Group 10507" transform="translate(12.824 12.177)">
    <g id="Group_10488" data-name="Group 10488">
      <g id="Group_10487" data-name="Group 10487" clip-path="url(#clip-path)">
        <path id="Path_22637" data-name="Path 22637" d="M15.325,1.518a6.354,6.354,0,0,1-1.556.444c.25-.042.618-.5.765-.678a2.857,2.857,0,0,0,.517-.942c.014-.027.023-.06,0-.081a.088.088,0,0,0-.082.007,7.933,7.933,0,0,1-1.845.706A.123.123,0,0,1,12.992.94a1.5,1.5,0,0,0-.161-.165,3.258,3.258,0,0,0-.894-.548A3.11,3.11,0,0,0,10.566.006a3.275,3.275,0,0,0-1.3.367,3.351,3.351,0,0,0-1.049.857A3.222,3.222,0,0,0,7.59,2.486a3.4,3.4,0,0,0-.033,1.325c.01.074,0,.084-.064.074A9.856,9.856,0,0,1,1.153.658C1.079.573,1.039.573.978.664a3.214,3.214,0,0,0,.548,3.8c.125.118.252.236.39.343A3.232,3.232,0,0,1,.692,4.462c-.074-.047-.111-.02-.118.064a1.917,1.917,0,0,0,.02.363,3.25,3.25,0,0,0,2,2.592A1.912,1.912,0,0,0,3,7.606a3.621,3.621,0,0,1-1.2.037c-.088-.017-.121.027-.088.111A3.376,3.376,0,0,0,4.239,9.865c.114.02.228.02.343.047-.007.01-.014.01-.02.02a3.991,3.991,0,0,1-1.722.912,6.162,6.162,0,0,1-2.615.335c-.141-.021-.17-.019-.208,0s-.005.058.04.094c.179.118.36.222.545.323a8.6,8.6,0,0,0,1.748.7,9.31,9.31,0,0,0,9.038-2.114,9.485,9.485,0,0,0,2.5-6.919c0-.1.117-.154.187-.207a6.126,6.126,0,0,0,1.23-1.279.389.389,0,0,0,.081-.245V1.518c0-.041,0-.029-.063,0" transform="translate(0 0)" fill="#fff"/>
      </g>
    </g>
  </g>
</svg>
