<svg xmlns="http://www.w3.org/2000/svg" width="39" height="26.999" viewBox="0 0 39 26.999">
  <g id="Group_11377" data-name="Group 11377" transform="translate(-828 -603)">
    <path id="Subtraction_3" data-name="Subtraction 3" d="M6584-1258h-24a6.007,6.007,0,0,1-6-6v-15a6.007,6.007,0,0,1,6-6h24a6.008,6.008,0,0,1,6,6v1h-7.5a6.508,6.508,0,0,0-6.5,6.5,6.507,6.507,0,0,0,6.5,6.5h7.5v1A6.007,6.007,0,0,1,6584-1258Z" transform="translate(-5726 1888)" fill="#fff"/>
    <g id="Rectangle_694" data-name="Rectangle 694" transform="translate(851 611)" fill="none" stroke="#fff" stroke-width="2">
      <path d="M5.5,0h8.882A1.618,1.618,0,0,1,16,1.618V9.382A1.618,1.618,0,0,1,14.382,11H5.5A5.5,5.5,0,0,1,0,5.5v0A5.5,5.5,0,0,1,5.5,0Z" stroke="none"/>
      <path d="M5.5,1h8.273A1.227,1.227,0,0,1,15,2.227V8.773A1.227,1.227,0,0,1,13.773,10H5.5A4.5,4.5,0,0,1,1,5.5v0A4.5,4.5,0,0,1,5.5,1Z" fill="none"/>
    </g>
    <line id="Line_174" data-name="Line 174" x2="1.696" transform="translate(855.804 616.5)" fill="none" stroke="#fff" stroke-linecap="round" stroke-width="2"/>
  </g>
</svg>
