<svg xmlns="http://www.w3.org/2000/svg" xmlns:xlink="http://www.w3.org/1999/xlink" width="328.866" height="60" viewBox="0 0 328.866 60">
  <defs>
    <filter id="Path_22691" x="0" y="0" width="328.866" height="60" filterUnits="userSpaceOnUse">
      <feOffset input="SourceAlpha"/>
      <feGaussianBlur stdDeviation="6" result="blur"/>
      <feFlood flood-color="#fff" result="color"/>
      <feComposite operator="out" in="SourceGraphic" in2="blur"/>
      <feComposite operator="in" in="color"/>
      <feComposite operator="in" in2="SourceGraphic"/>
    </filter>
  </defs>
  <g data-type="innerShadowGroup">
    <g id="Path_22691-2" data-name="Path 22691" fill="#fff">
      <path d="M 328.3664855957031 59.5 L 17.08885383605957 59.5 L 0.5000191926956177 44.77523803710938 L 0.5000191926956177 0.5 L 311.7146911621094 0.5 L 328.3664855957031 16.33953666687012 L 328.3664855957031 59.5 Z" stroke="none"/>
      <path d="M 0.999969482421875 1 L 0.999969482421875 44.55051803588867 L 17.2786865234375 59 L 327.8664245605469 59 L 327.8664245605469 16.55395126342773 L 311.5149230957031 1 L 0.999969482421875 1 M -3.0517578125e-05 0 L 311.91455078125 0 L 328.8664245605469 16.12504196166992 L 328.8664245605469 60 L 16.89889526367188 60 L -3.0517578125e-05 45 L -3.0517578125e-05 0 Z" stroke="none"/>
    </g>
    <g transform="matrix(1, 0, 0, 1, 0, 0)" filter="url(#Path_22691)">
      <g id="Path_22691-3" data-name="Path 22691" fill="#fff">
        <path d="M 328.3664855957031 59.5 L 17.08885383605957 59.5 L 0.5000191926956177 44.77523803710938 L 0.5000191926956177 0.5 L 311.7146911621094 0.5 L 328.3664855957031 16.33953666687012 L 328.3664855957031 59.5 Z" stroke="none"/>
        <path d="M 0.999969482421875 1 L 0.999969482421875 44.55051803588867 L 17.2786865234375 59 L 327.8664245605469 59 L 327.8664245605469 16.55395126342773 L 311.5149230957031 1 L 0.999969482421875 1 M -3.0517578125e-05 0 L 311.91455078125 0 L 328.8664245605469 16.12504196166992 L 328.8664245605469 60 L 16.89889526367188 60 L -3.0517578125e-05 45 L -3.0517578125e-05 0 Z" stroke="none"/>
      </g>
    </g>
    <g id="Path_22691-4" data-name="Path 22691" fill="none">
      <path d="M 328.3664855957031 59.5 L 17.08885383605957 59.5 L 0.5000191926956177 44.77523803710938 L 0.5000191926956177 0.5 L 311.7146911621094 0.5 L 328.3664855957031 16.33953666687012 L 328.3664855957031 59.5 Z" stroke="none"/>
      <path d="M 0.999969482421875 1 L 0.999969482421875 44.55051803588867 L 17.2786865234375 59 L 327.8664245605469 59 L 327.8664245605469 16.55395126342773 L 311.5149230957031 1 L 0.999969482421875 1 M -3.0517578125e-05 0 L 311.91455078125 0 L 328.8664245605469 16.12504196166992 L 328.8664245605469 60 L 16.89889526367188 60 L -3.0517578125e-05 45 L -3.0517578125e-05 0 Z" stroke="none" fill="#fff"/>
    </g>
  </g>
</svg>
